# xmcd
#
# Track frame offsets:
# 182
# 22902
# 44492
# 65025
# 84935
# 109000
# 132612
# 152417
# 176457
# 198492
#
# Disc length: 2954 seconds
#
#
# Revision: 2
# Processed by: cddbd v1.5PL3 Copyright (c) Steve Scherf et al.
# Submitted via: FreeRIP 2.60 
#
DISCID=7f0b880a
DTITLE=Cindy Mizelle - Cindy Mizelle
DYEAR=1994
DGENRE=Soul
TTITLE0=Because of You
TTITLE1=I Can't Let Go
TTITLE2=I've Had Enough
TTITLE3=Over You
TTITLE4=Smile
TTITLE5=Two Hearts
TTITLE6=My Favorite Song
TTITLE7=Back to My Emotions
TTITLE8=Imagine
TTITLE9=Love Talk to Me
EXTD=Label =Eastwest Records America\n02255-2
EXTT0=
EXTT1=
EXTT2=
EXTT3=
EXTT4=
EXTT5=
EXTT6=
EXTT7=
EXTT8=
EXTT9=
PLAYORDER=
